<svg width="30" height="30" viewBox="0 0 30 30" fill="none" xmlns="http://www.w3.org/2000/svg">
<path opacity="0.987" fill-rule="evenodd" clip-rule="evenodd" d="M13.5169 1.98938C14.8763 1.8375 15.6807 1.8375 17.1413 1.98938C19.7268 2.37206 22.1236 3.56716 23.985 5.40188C22.7271 6.59088 21.4858 7.79725 20.2613 9.02063C17.9163 7.03313 15.2988 6.57438 12.4088 7.64438C10.2888 8.61938 8.81253 10.1994 7.98003 12.3844C6.6196 11.3716 5.2769 10.3352 3.95253 9.27563C3.86049 9.22718 3.75537 9.20944 3.65253 9.225C5.75628 5.16875 9.04378 2.75625 13.515 1.9875" fill="#F44336"/>
<path opacity="0.997" fill-rule="evenodd" clip-rule="evenodd" d="M3.64876 9.225C3.75501 9.20875 3.85564 9.22563 3.95064 9.27563C5.27501 10.3352 6.61772 11.3716 7.97814 12.3844C7.76406 13.2357 7.62911 14.1051 7.57501 14.9813C7.62126 15.8288 7.75564 16.6606 7.97814 17.4769L3.75001 20.8425C1.90876 16.995 1.87501 13.1225 3.64876 9.225Z" fill="#FFC107"/>
<path opacity="0.999" fill-rule="evenodd" clip-rule="evenodd" d="M23.7844 24.9188C22.4679 23.7577 21.0896 22.6686 19.6556 21.6563C21.0931 20.6413 21.9656 19.2488 22.2731 17.4788H15.2288V12.5869C19.2913 12.5531 23.3519 12.5875 27.4106 12.69C28.1806 16.8713 27.2913 20.6413 24.7425 24C24.4394 24.3222 24.1184 24.6288 23.7844 24.9188Z" fill="#448AFF"/>
<path opacity="0.993" fill-rule="evenodd" clip-rule="evenodd" d="M7.97813 17.4788C9.51562 21.3 12.3344 23.0838 16.4344 22.83C17.5853 22.6968 18.6888 22.2947 19.6556 21.6563C21.0906 22.6713 22.4669 23.7588 23.7844 24.9188C21.6968 26.7946 19.0352 27.9076 16.2338 28.0763C15.5973 28.1271 14.9577 28.1271 14.3212 28.0763C9.54875 27.5138 6.025 25.1025 3.75 20.8425L7.97813 17.4788Z" fill="#43A047"/>
</svg>
