<svg width="30" height="28" viewBox="0 0 30 28" fill="none" xmlns="http://www.w3.org/2000/svg">
<path d="M15 0C6.72923 0 0 6.28062 0 14C0 21.7194 6.72923 28 15 28C23.2708 28 30 21.7194 30 14C30 6.28062 23.2708 0 15 0ZM15 2.15385C22.0235 2.15385 27.6923 7.44477 27.6923 14C27.6923 20.5552 22.0235 25.8462 15 25.8462C7.97654 25.8462 2.30769 20.5552 2.30769 14C2.30769 7.44477 7.97654 2.15385 15 2.15385ZM13.8462 7.53846V12.9231H8.07692V15.0769H13.8462V20.4615H16.1538V15.0769H21.9231V12.9231H16.1538V7.53846H13.8462Z" fill="#9EA2AE"/>
</svg>
